<svg width="64" height="64" viewBox="0 0 64 64" fill="none" xmlns="http://www.w3.org/2000/svg">
<rect width="64" height="64" fill="black"/>
<path d="M8 40.1034C6.61929 40.1034 5.5 41.2227 5.5 42.6034C5.5 43.9842 6.61929 45.1034 8 45.1034V40.1034ZM24 42.6034V45.1034H25.8381L26.3862 43.349L24 42.6034ZM32 17L34.3862 16.2544C34.0601 15.2107 33.0935 14.5 32 14.5C30.9065 14.5 29.9399 15.2107 29.6138 16.2544L32 17ZM40 42.6034L37.6138 43.349L38.1619 45.1034H40V42.6034ZM56 45.1034C57.3807 45.1034 58.5 43.9842 58.5 42.6034C58.5 41.2227 57.3807 40.1034 56 40.1034V45.1034ZM8 45.1034H24V40.1034H8V45.1034ZM26.3862 43.349L34.3862 17.7456L29.6138 16.2544L21.6138 41.8579L26.3862 43.349ZM29.6138 17.7456L37.6138 43.349L42.3862 41.8579L34.3862 16.2544L29.6138 17.7456ZM40 45.1034H56V40.1034H40V45.1034Z" fill="white"/>
</svg>
