<svg width="64" height="64" viewBox="0 0 64 64" fill="none" xmlns="http://www.w3.org/2000/svg">
<rect width="64" height="64" fill="black"/>
<path d="M16.95 51.216C16.038 51.216 15.276 51.054 14.664 50.73C14.052 50.406 13.59 49.908 13.278 49.236C12.966 48.552 12.792 47.67 12.756 46.59L15.51 46.176C15.522 46.8 15.576 47.304 15.672 47.688C15.78 48.072 15.924 48.348 16.104 48.516C16.296 48.684 16.524 48.768 16.788 48.768C17.124 48.768 17.34 48.654 17.436 48.426C17.544 48.198 17.598 47.958 17.598 47.706C17.598 47.106 17.454 46.602 17.166 46.194C16.878 45.774 16.488 45.354 15.996 44.934L14.736 43.836C14.184 43.368 13.716 42.84 13.332 42.252C12.96 41.652 12.774 40.914 12.774 40.038C12.774 38.802 13.14 37.86 13.872 37.212C14.604 36.552 15.6 36.222 16.86 36.222C17.64 36.222 18.264 36.354 18.732 36.618C19.212 36.882 19.572 37.23 19.812 37.662C20.064 38.082 20.232 38.532 20.316 39.012C20.412 39.48 20.466 39.93 20.478 40.362L17.706 40.704C17.694 40.272 17.664 39.9 17.616 39.588C17.58 39.264 17.496 39.018 17.364 38.85C17.232 38.67 17.028 38.58 16.752 38.58C16.452 38.58 16.23 38.706 16.086 38.958C15.954 39.21 15.888 39.462 15.888 39.714C15.888 40.254 16.014 40.698 16.266 41.046C16.53 41.382 16.872 41.736 17.292 42.108L18.498 43.17C19.134 43.71 19.668 44.322 20.1 45.006C20.544 45.69 20.766 46.536 20.766 47.544C20.766 48.228 20.61 48.852 20.298 49.416C19.986 49.968 19.542 50.406 18.966 50.73C18.402 51.054 17.73 51.216 16.95 51.216ZM26.5381 51.216C25.4221 51.216 24.5461 51.036 23.9101 50.676C23.2861 50.304 22.8481 49.77 22.5961 49.074C22.3441 48.366 22.2181 47.502 22.2181 46.482V36.42H25.4041V46.968C25.4041 47.268 25.4281 47.568 25.4761 47.868C25.5241 48.168 25.6261 48.414 25.7821 48.606C25.9501 48.798 26.2021 48.894 26.5381 48.894C26.8861 48.894 27.1381 48.798 27.2941 48.606C27.4501 48.414 27.5461 48.168 27.5821 47.868C27.6301 47.568 27.6541 47.268 27.6541 46.968V36.42H30.8581V46.482C30.8581 47.502 30.7261 48.366 30.4621 49.074C30.2101 49.77 29.7721 50.304 29.1481 50.676C28.5241 51.036 27.6541 51.216 26.5381 51.216ZM32.9081 51V36.42H36.9221C37.9061 36.42 38.7581 36.528 39.4781 36.744C40.1981 36.96 40.7561 37.35 41.1521 37.914C41.5601 38.466 41.7641 39.252 41.7641 40.272C41.7641 40.872 41.7161 41.406 41.6201 41.874C41.5241 42.342 41.3441 42.75 41.0801 43.098C40.8281 43.434 40.4621 43.716 39.9821 43.944L41.9801 51H38.6501L37.0481 44.466H36.1301V51H32.9081ZM36.1301 42.612H37.0301C37.4861 42.612 37.8401 42.534 38.0921 42.378C38.3441 42.21 38.5181 41.976 38.6141 41.676C38.7221 41.364 38.7761 40.992 38.7761 40.56C38.7761 39.936 38.6621 39.45 38.4341 39.102C38.2061 38.754 37.7861 38.58 37.1741 38.58H36.1301V42.612ZM43.7011 51V36.42H50.0011V38.598H46.9231V42.27H49.6051V44.52H46.9231V51H43.7011Z" fill="white"/>
<path d="M7 28.1034C6.44772 28.1034 6 28.5512 6 29.1034C6 29.6557 6.44772 30.1034 7 30.1034V28.1034ZM25.75 29.1034V30.1034H26.4627L26.6953 29.4298L25.75 29.1034ZM32 11L32.9589 10.7162C32.8355 10.2994 32.457 10.01 32.0224 10.0002C31.5877 9.99053 31.1966 10.2627 31.0547 10.6737L32 11ZM37.3571 29.1034L36.3982 29.3872L36.6102 30.1034H37.3571V29.1034ZM57 30.1034C57.5523 30.1034 58 29.6557 58 29.1034C58 28.5512 57.5523 28.1034 57 28.1034V30.1034ZM7 30.1034H25.75V28.1034H7V30.1034ZM26.6953 29.4298L32.9453 11.3263L31.0547 10.6737L24.8047 28.7771L26.6953 29.4298ZM31.0411 11.2838L36.3982 29.3872L38.316 28.8197L32.9589 10.7162L31.0411 11.2838ZM37.3571 30.1034H57V28.1034H37.3571V30.1034Z" fill="white"/>
</svg>
